<?xml version="1.0" encoding="UTF-8" standalone="no"?>
<!DOCTYPE svg PUBLIC "-//W3C//DTD SVG 1.1//EN"
 "http://www.w3.org/Graphics/SVG/1.1/DTD/svg11.dtd">
<!-- Generated by graphviz version 2.38.0 (20140413.2041)
 -->
<!-- Title: g Pages: 1 -->
<svg width="204pt" height="407pt"
 viewBox="0.00 0.00 204.00 407.00" xmlns="http://www.w3.org/2000/svg" xmlns:xlink="http://www.w3.org/1999/xlink">
<g id="graph0" class="graph" transform="scale(1 1) rotate(0) translate(4 403)">
<title>g</title>
<polygon fill="white" stroke="none" points="-4,4 -4,-403 200,-403 200,4 -4,4"/>
<g id="clust1" class="cluster"><title>cluster0</title>
<polygon fill="lightgrey" stroke="lightgrey" points="8,-64 8,-355 78,-355 78,-64 8,-64"/>
<text text-anchor="middle" x="43" y="-339.8" font-family="Times,serif" font-size="14.00">prcess #1</text>
</g>
<g id="clust2" class="cluster"><title>cluster1</title>
<polygon fill="none" stroke="blue" points="114,-64 114,-355 188,-355 188,-64 114,-64"/>
<text text-anchor="middle" x="151" y="-339.8" font-family="Times,serif" font-size="14.00">process #2</text>
</g>
<!-- a0 -->
<g id="node1" class="node"><title>a0</title>
<ellipse fill="white" stroke="white" cx="43" cy="-306" rx="27" ry="18"/>
<text text-anchor="middle" x="43" y="-302.3" font-family="Times,serif" font-size="14.00">a0</text>
</g>
<!-- a1 -->
<g id="node2" class="node"><title>a1</title>
<ellipse fill="white" stroke="white" cx="43" cy="-234" rx="27" ry="18"/>
<text text-anchor="middle" x="43" y="-230.3" font-family="Times,serif" font-size="14.00">a1</text>
</g>
<!-- a0&#45;&gt;a1 -->
<g id="edge1" class="edge"><title>a0&#45;&gt;a1</title>
<path fill="none" stroke="black" d="M43,-287.697C43,-279.983 43,-270.712 43,-262.112"/>
<polygon fill="black" stroke="black" points="46.5001,-262.104 43,-252.104 39.5001,-262.104 46.5001,-262.104"/>
</g>
<!-- a2 -->
<g id="node3" class="node"><title>a2</title>
<ellipse fill="white" stroke="white" cx="43" cy="-162" rx="27" ry="18"/>
<text text-anchor="middle" x="43" y="-158.3" font-family="Times,serif" font-size="14.00">a2</text>
</g>
<!-- a1&#45;&gt;a2 -->
<g id="edge2" class="edge"><title>a1&#45;&gt;a2</title>
<path fill="none" stroke="black" d="M43,-215.697C43,-207.983 43,-198.712 43,-190.112"/>
<polygon fill="black" stroke="black" points="46.5001,-190.104 43,-180.104 39.5001,-190.104 46.5001,-190.104"/>
</g>
<!-- b3 -->
<g id="node8" class="node"><title>b3</title>
<ellipse fill="lightgrey" stroke="black" cx="149" cy="-90" rx="27" ry="18"/>
<text text-anchor="middle" x="149" y="-86.3" font-family="Times,serif" font-size="14.00">b3</text>
</g>
<!-- a1&#45;&gt;b3 -->
<g id="edge9" class="edge"><title>a1&#45;&gt;b3</title>
<path fill="none" stroke="black" d="M54.5456,-217.533C73.1037,-192.672 109.69,-143.661 131.48,-114.47"/>
<polygon fill="black" stroke="black" points="134.291,-116.555 137.469,-106.448 128.682,-112.368 134.291,-116.555"/>
</g>
<!-- a3 -->
<g id="node4" class="node"><title>a3</title>
<ellipse fill="white" stroke="white" cx="43" cy="-90" rx="27" ry="18"/>
<text text-anchor="middle" x="43" y="-86.3" font-family="Times,serif" font-size="14.00">a3</text>
</g>
<!-- a2&#45;&gt;a3 -->
<g id="edge3" class="edge"><title>a2&#45;&gt;a3</title>
<path fill="none" stroke="black" d="M43,-143.697C43,-135.983 43,-126.712 43,-118.112"/>
<polygon fill="black" stroke="black" points="46.5001,-118.104 43,-108.104 39.5001,-118.104 46.5001,-118.104"/>
</g>
<!-- end -->
<g id="node10" class="node"><title>end</title>
<polygon fill="none" stroke="black" points="114,-36 78,-36 78,-0 114,-0 114,-36"/>
<polyline fill="none" stroke="black" points="90,-36 78,-24 "/>
<polyline fill="none" stroke="black" points="78,-12 90,-0 "/>
<polyline fill="none" stroke="black" points="102,-0 114,-12 "/>
<polyline fill="none" stroke="black" points="114,-24 102,-36 "/>
<text text-anchor="middle" x="96" y="-14.3" font-family="Times,serif" font-size="14.00">end</text>
</g>
<!-- a3&#45;&gt;end -->
<g id="edge11" class="edge"><title>a3&#45;&gt;end</title>
<path fill="none" stroke="black" d="M54.7624,-73.4647C61.1781,-64.9912 69.2837,-54.2857 76.6072,-44.6131"/>
<polygon fill="black" stroke="black" points="79.5336,-46.5462 82.7796,-36.4609 73.9528,-42.3207 79.5336,-46.5462"/>
</g>
<!-- b0 -->
<g id="node5" class="node"><title>b0</title>
<ellipse fill="lightgrey" stroke="black" cx="151" cy="-306" rx="27" ry="18"/>
<text text-anchor="middle" x="151" y="-302.3" font-family="Times,serif" font-size="14.00">b0</text>
</g>
<!-- b1 -->
<g id="node6" class="node"><title>b1</title>
<ellipse fill="lightgrey" stroke="black" cx="152" cy="-234" rx="27" ry="18"/>
<text text-anchor="middle" x="152" y="-230.3" font-family="Times,serif" font-size="14.00">b1</text>
</g>
<!-- b0&#45;&gt;b1 -->
<g id="edge4" class="edge"><title>b0&#45;&gt;b1</title>
<path fill="none" stroke="black" d="M151.247,-287.697C151.357,-279.983 151.49,-270.712 151.613,-262.112"/>
<polygon fill="black" stroke="black" points="155.112,-262.153 151.756,-252.104 148.113,-262.053 155.112,-262.153"/>
</g>
<!-- b2 -->
<g id="node7" class="node"><title>b2</title>
<ellipse fill="lightgrey" stroke="black" cx="153" cy="-162" rx="27" ry="18"/>
<text text-anchor="middle" x="153" y="-158.3" font-family="Times,serif" font-size="14.00">b2</text>
</g>
<!-- b1&#45;&gt;b2 -->
<g id="edge5" class="edge"><title>b1&#45;&gt;b2</title>
<path fill="none" stroke="black" d="M152.247,-215.697C152.357,-207.983 152.49,-198.712 152.613,-190.112"/>
<polygon fill="black" stroke="black" points="156.112,-190.153 152.756,-180.104 149.113,-190.053 156.112,-190.153"/>
</g>
<!-- b2&#45;&gt;a3 -->
<g id="edge10" class="edge"><title>b2&#45;&gt;a3</title>
<path fill="none" stroke="black" d="M133.839,-148.807C116.331,-137.665 90.2405,-121.062 70.5068,-108.504"/>
<polygon fill="black" stroke="black" points="72.2567,-105.469 61.941,-103.053 68.4985,-111.375 72.2567,-105.469"/>
</g>
<!-- b2&#45;&gt;b3 -->
<g id="edge6" class="edge"><title>b2&#45;&gt;b3</title>
<path fill="none" stroke="black" d="M152.011,-143.697C151.57,-135.983 151.041,-126.712 150.549,-118.112"/>
<polygon fill="black" stroke="black" points="154.042,-117.888 149.977,-108.104 147.054,-118.288 154.042,-117.888"/>
</g>
<!-- b3&#45;&gt;end -->
<g id="edge12" class="edge"><title>b3&#45;&gt;end</title>
<path fill="none" stroke="black" d="M137.238,-73.4647C130.822,-64.9912 122.716,-54.2857 115.393,-44.6131"/>
<polygon fill="black" stroke="black" points="118.047,-42.3207 109.22,-36.4609 112.466,-46.5462 118.047,-42.3207"/>
</g>
<!-- start -->
<g id="node9" class="node"><title>start</title>
<polygon fill="none" stroke="black" points="97,-399 60.4659,-381 97,-363 133.534,-381 97,-399"/>
<polyline fill="none" stroke="black" points="71.2304,-386.304 71.2304,-375.696 "/>
<polyline fill="none" stroke="black" points="86.2356,-368.304 107.764,-368.304 "/>
<polyline fill="none" stroke="black" points="122.77,-375.696 122.77,-386.304 "/>
<polyline fill="none" stroke="black" points="107.764,-393.696 86.2356,-393.696 "/>
<text text-anchor="middle" x="97" y="-377.3" font-family="Times,serif" font-size="14.00">start</text>
</g>
<!-- start&#45;&gt;a0 -->
<g id="edge7" class="edge"><title>start&#45;&gt;a0</title>
<path fill="none" stroke="black" d="M87.5939,-367.284C80.1533,-357.226 69.5554,-342.899 60.5579,-330.736"/>
<polygon fill="black" stroke="black" points="63.1181,-328.311 54.3572,-322.353 57.4904,-332.474 63.1181,-328.311"/>
</g>
<!-- start&#45;&gt;b0 -->
<g id="edge8" class="edge"><title>start&#45;&gt;b0</title>
<path fill="none" stroke="black" d="M106.406,-367.284C113.847,-357.226 124.445,-342.899 133.442,-330.736"/>
<polygon fill="black" stroke="black" points="136.51,-332.474 139.643,-322.353 130.882,-328.311 136.51,-332.474"/>
</g>
</g>
</svg>
