<?xml version="1.0" encoding="UTF-8" standalone="no"?>
<!DOCTYPE svg PUBLIC "-//W3C//DTD SVG 1.1//EN"
 "http://www.w3.org/Graphics/SVG/1.1/DTD/svg11.dtd">
<!-- Generated by graphviz version 2.38.0 (20140413.2041)
 -->
<!-- Title: G Pages: 1 -->
<svg width="256pt" height="288pt"
 viewBox="0.00 0.00 256.22 288.00" xmlns="http://www.w3.org/2000/svg" xmlns:xlink="http://www.w3.org/1999/xlink">
<g id="graph0" class="graph" transform="scale(0.912143 0.912143) rotate(0) translate(4 311.74)">
<title>G</title>
<polygon fill="white" stroke="none" points="-4,4 -4,-311.74 276.894,-311.74 276.894,4 -4,4"/>
<!-- main -->
<g id="node1" class="node"><title>main</title>
<polygon fill="none" stroke="black" points="180.547,-307.74 126.547,-307.74 126.547,-271.74 180.547,-271.74 180.547,-307.74"/>
<text text-anchor="middle" x="153.547" y="-286.04" font-family="Times,serif" font-size="14.00">main</text>
</g>
<!-- parse -->
<g id="node2" class="node"><title>parse</title>
<ellipse fill="none" stroke="black" cx="111.547" cy="-216.74" rx="29.4969" ry="18"/>
<text text-anchor="middle" x="111.547" y="-213.04" font-family="Times,serif" font-size="14.00">parse</text>
</g>
<!-- main&#45;&gt;parse -->
<g id="edge1" class="edge"><title>main&#45;&gt;parse</title>
<path fill="none" stroke="black" d="M143.38,-271.553C138.229,-262.845 131.88,-252.112 126.211,-242.528"/>
<polygon fill="black" stroke="black" points="129.149,-240.621 121.045,-233.796 123.124,-244.185 129.149,-240.621"/>
</g>
<!-- init -->
<g id="node4" class="node"><title>init</title>
<ellipse fill="none" stroke="black" cx="172.547" cy="-162.74" rx="27" ry="18"/>
<text text-anchor="middle" x="172.547" y="-159.04" font-family="Times,serif" font-size="14.00">init</text>
</g>
<!-- main&#45;&gt;init -->
<g id="edge3" class="edge"><title>main&#45;&gt;init</title>
<path fill="none" stroke="black" stroke-dasharray="1,5" d="M156.149,-271.621C159.301,-250.886 164.651,-215.693 168.379,-191.162"/>
<polygon fill="black" stroke="black" points="171.873,-191.466 169.916,-181.053 164.953,-190.414 171.873,-191.466"/>
</g>
<!-- cleanup -->
<g id="node5" class="node"><title>cleanup</title>
<ellipse fill="none" stroke="black" cx="234.547" cy="-216.74" rx="38.1938" ry="18"/>
<text text-anchor="middle" x="234.547" y="-213.04" font-family="Times,serif" font-size="14.00">cleanup</text>
</g>
<!-- main&#45;&gt;cleanup -->
<g id="edge4" class="edge"><title>main&#45;&gt;cleanup</title>
<path fill="none" stroke="black" d="M173.155,-271.553C184.111,-261.95 197.876,-249.884 209.594,-239.613"/>
<polygon fill="black" stroke="black" points="212.107,-242.064 217.32,-232.841 207.493,-236.8 212.107,-242.064"/>
</g>
<!-- printf -->
<g id="node7" class="node"><title>printf</title>
<ellipse fill="none" stroke="black" cx="30.5473" cy="-26.8701" rx="30.5947" ry="18"/>
<text text-anchor="middle" x="30.5473" y="-23.1701" font-family="Times,serif" font-size="14.00">printf</text>
</g>
<!-- main&#45;&gt;printf -->
<g id="edge8" class="edge"><title>main&#45;&gt;printf</title>
<path fill="none" stroke="red" stroke-width="2" d="M126.287,-275.799C109.141,-266.466 87.6653,-252.416 73.5473,-234.74 31.4272,-182.007 27.6395,-98.2198 28.8417,-55.2526"/>
<polygon fill="red" stroke="red" stroke-width="2" points="32.3489,-55.1379 29.247,-45.0073 25.3543,-54.861 32.3489,-55.1379"/>
<text text-anchor="middle" x="72.0473" y="-159.04" font-family="Times,serif" font-size="14.00">100 times</text>
</g>
<!-- execute -->
<g id="node3" class="node"><title>execute</title>
<ellipse fill="none" stroke="black" cx="111.547" cy="-108.74" rx="37.8943" ry="18"/>
<text text-anchor="middle" x="111.547" y="-105.04" font-family="Times,serif" font-size="14.00">execute</text>
</g>
<!-- parse&#45;&gt;execute -->
<g id="edge2" class="edge"><title>parse&#45;&gt;execute</title>
<path fill="none" stroke="black" d="M111.547,-198.709C111.547,-182.118 111.547,-156.623 111.547,-137.171"/>
<polygon fill="black" stroke="black" points="115.047,-137.081 111.547,-127.081 108.047,-137.081 115.047,-137.081"/>
</g>
<!-- make_string -->
<g id="node6" class="node"><title>make_string</title>
<ellipse fill="none" stroke="black" cx="201.547" cy="-26.8701" rx="39.6962" ry="26.7407"/>
<text text-anchor="middle" x="201.547" y="-30.6701" font-family="Times,serif" font-size="14.00">make a</text>
<text text-anchor="middle" x="201.547" y="-15.6701" font-family="Times,serif" font-size="14.00">string</text>
</g>
<!-- execute&#45;&gt;make_string -->
<g id="edge5" class="edge"><title>execute&#45;&gt;make_string</title>
<path fill="none" stroke="black" d="M128.9,-92.3404C140.709,-81.8605 156.666,-67.7001 170.616,-55.3197"/>
<polygon fill="black" stroke="black" points="172.965,-57.9149 178.121,-48.6595 168.318,-52.6793 172.965,-57.9149"/>
</g>
<!-- execute&#45;&gt;printf -->
<g id="edge6" class="edge"><title>execute&#45;&gt;printf</title>
<path fill="none" stroke="black" d="M95.9297,-92.3404C83.6724,-80.2541 66.4506,-63.2725 52.7587,-49.7716"/>
<polygon fill="black" stroke="black" points="55.1473,-47.2115 45.5693,-42.6825 50.2324,-52.1959 55.1473,-47.2115"/>
</g>
<!-- compare -->
<g id="node8" class="node"><title>compare</title>
<polygon fill="#c1b2ff" stroke="#c1b2ff" points="143.547,-44.8701 79.5473,-44.8701 79.5473,-8.87006 143.547,-8.87006 143.547,-44.8701"/>
<text text-anchor="middle" x="111.547" y="-23.1701" font-family="Times,serif" font-size="14.00">compare</text>
</g>
<!-- execute&#45;&gt;compare -->
<g id="edge9" class="edge"><title>execute&#45;&gt;compare</title>
<path fill="none" stroke="red" d="M111.547,-90.4095C111.547,-80.0823 111.547,-66.7479 111.547,-55.0464"/>
<polygon fill="red" stroke="red" points="115.047,-54.8924 111.547,-44.8925 108.047,-54.8925 115.047,-54.8924"/>
</g>
<!-- init&#45;&gt;make_string -->
<g id="edge7" class="edge"><title>init&#45;&gt;make_string</title>
<path fill="none" stroke="black" d="M176.22,-144.785C180.607,-124.537 188.064,-90.1114 193.754,-63.8444"/>
<polygon fill="black" stroke="black" points="197.219,-64.3819 195.915,-53.8676 190.378,-62.8999 197.219,-64.3819"/>
</g>
</g>
</svg>
