<?xml version="1.0" encoding="UTF-8" standalone="no"?>
<!DOCTYPE svg PUBLIC "-//W3C//DTD SVG 1.1//EN"
 "http://www.w3.org/Graphics/SVG/1.1/DTD/svg11.dtd">
<!-- Generated by graphviz version 2.38.0 (20140413.2041)
 -->
<!-- Title: G Pages: 1 -->
<svg width="193pt" height="206pt"
 viewBox="0.00 0.00 192.75 205.62" xmlns="http://www.w3.org/2000/svg" xmlns:xlink="http://www.w3.org/1999/xlink">
<g id="graph0" class="graph" transform="scale(1 1) rotate(0) translate(4 201.616)">
<title>G</title>
<polygon fill="white" stroke="none" points="-4,4 -4,-201.616 188.755,-201.616 188.755,4 -4,4"/>
<!-- a -->
<g id="node1" class="node"><title>a</title>
<polygon fill="lightblue" stroke="lightblue" points="89.9461,-176.331 63,-188.68 36.0539,-176.331 46.3464,-156.349 79.6536,-156.349 89.9461,-176.331"/>
<polygon fill="none" stroke="lightblue" points="95.3974,-178.205 63,-193.053 30.6026,-178.205 43.9064,-152.378 82.0936,-152.378 95.3974,-178.205"/>
<polygon fill="none" stroke="lightblue" points="100.849,-180.08 63,-197.425 25.1514,-180.08 41.4665,-148.406 84.5335,-148.406 100.849,-180.08"/>
<text text-anchor="middle" x="63" y="-167.108" font-family="Times,serif" font-size="14.00">a</text>
</g>
<!-- b -->
<g id="node2" class="node"><title>b</title>
<ellipse fill="none" stroke="black" cx="63" cy="-90" rx="27" ry="18"/>
<text text-anchor="middle" x="63" y="-86.3" font-family="Times,serif" font-size="14.00">b</text>
</g>
<!-- a&#45;&gt;b -->
<g id="edge1" class="edge"><title>a&#45;&gt;b</title>
<path fill="none" stroke="black" d="M63,-148.273C63,-138.969 63,-127.979 63,-118.126"/>
<polygon fill="black" stroke="black" points="66.5001,-118.015 63,-108.015 59.5001,-118.015 66.5001,-118.015"/>
</g>
<!-- c -->
<g id="node3" class="node"><title>c</title>
<polygon fill="none" stroke="black" points="54,-36 8.4571,-36 1.77636e-14,-1.42109e-14 45.5429,-3.55271e-15 54,-36"/>
<text text-anchor="middle" x="27" y="-14.3" font-family="Times,serif" font-size="14.00">c</text>
</g>
<!-- b&#45;&gt;c -->
<g id="edge2" class="edge"><title>b&#45;&gt;c</title>
<path fill="none" stroke="black" d="M54.6504,-72.7646C50.4572,-64.6113 45.2721,-54.5291 40.5291,-45.3066"/>
<polygon fill="black" stroke="black" points="43.4926,-43.4161 35.8066,-36.1239 37.2676,-46.6176 43.4926,-43.4161"/>
</g>
<!-- d -->
<g id="node4" class="node"><title>d</title>
<polygon fill="none" stroke="black" points="126,-36 72,-36 72,-0 126,-0 126,-36"/>
<text text-anchor="middle" x="99" y="-14.3" font-family="Times,serif" font-size="14.00">d</text>
</g>
<!-- b&#45;&gt;d -->
<g id="edge3" class="edge"><title>b&#45;&gt;d</title>
<path fill="none" stroke="black" d="M71.3496,-72.7646C75.5428,-64.6113 80.7279,-54.5291 85.4709,-45.3066"/>
<polygon fill="black" stroke="black" points="88.7324,-46.6176 90.1934,-36.1239 82.5074,-43.4161 88.7324,-46.6176"/>
</g>
<!-- e -->
<g id="node5" class="node"><title>e</title>
<polygon fill="none" stroke="black" points="184.511,-188.808 119.489,-188.808 138.248,-152.808 165.752,-152.808 184.511,-188.808"/>
<text text-anchor="middle" x="152" y="-167.108" font-family="Times,serif" font-size="14.00">e</text>
</g>
</g>
</svg>
