<?xml version="1.0" encoding="UTF-8" standalone="no"?>
<!DOCTYPE svg PUBLIC "-//W3C//DTD SVG 1.1//EN"
 "http://www.w3.org/Graphics/SVG/1.1/DTD/svg11.dtd">
<!-- Generated by graphviz version 2.38.0 (20140413.2041)
 -->
<!-- Title: parsefile Pages: 1 -->
<svg width="104pt" height="188pt"
 viewBox="0.00 0.00 104.19 188.00" xmlns="http://www.w3.org/2000/svg" xmlns:xlink="http://www.w3.org/1999/xlink">
<g id="graph0" class="graph" transform="scale(1 1) rotate(0) translate(4 184)">
<title>parsefile</title>
<polygon fill="white" stroke="none" points="-4,4 -4,-184 100.191,-184 100.191,4 -4,4"/>
<!-- parsefile -->
<g id="node1" class="node"><title>parsefile</title>
<ellipse fill="none" stroke="black" cx="48.0957" cy="-162" rx="40.8928" ry="18"/>
<text text-anchor="middle" x="48.0957" y="-158.3" font-family="Times,serif" font-size="14.00">parsefile</text>
</g>
<!-- tok_setupf -->
<g id="node2" class="node"><title>tok_setupf</title>
<ellipse fill="none" stroke="black" cx="48.0957" cy="-90" rx="48.1917" ry="18"/>
<text text-anchor="middle" x="48.0957" y="-86.3" font-family="Times,serif" font-size="14.00">tok_setupf</text>
</g>
<!-- parsefile&#45;&gt;tok_setupf -->
<g id="edge1" class="edge"><title>parsefile&#45;&gt;tok_setupf</title>
<path fill="none" stroke="black" d="M48.0957,-143.697C48.0957,-135.983 48.0957,-126.712 48.0957,-118.112"/>
<polygon fill="black" stroke="black" points="51.5958,-118.104 48.0957,-108.104 44.5958,-118.104 51.5958,-118.104"/>
</g>
<!-- tok_new -->
<g id="node3" class="node"><title>tok_new</title>
<ellipse fill="none" stroke="black" cx="48.0957" cy="-18" rx="40.8928" ry="18"/>
<text text-anchor="middle" x="48.0957" y="-14.3" font-family="Times,serif" font-size="14.00">tok_new</text>
</g>
<!-- tok_setupf&#45;&gt;tok_new -->
<g id="edge2" class="edge"><title>tok_setupf&#45;&gt;tok_new</title>
<path fill="none" stroke="black" d="M48.0957,-71.6966C48.0957,-63.9827 48.0957,-54.7125 48.0957,-46.1124"/>
<polygon fill="black" stroke="black" points="51.5958,-46.1043 48.0957,-36.1043 44.5958,-46.1044 51.5958,-46.1043"/>
</g>
</g>
</svg>
