<?xml version="1.0" encoding="UTF-8" standalone="no"?>
<!DOCTYPE svg PUBLIC "-//W3C//DTD SVG 1.1//EN"
 "http://www.w3.org/Graphics/SVG/1.1/DTD/svg11.dtd">
<!-- Generated by graphviz version 2.38.0 (20140413.2041)
 -->
<!-- Title: grammer Pages: 1 -->
<svg width="510pt" height="613pt"
 viewBox="0.00 0.00 510.00 613.00" xmlns="http://www.w3.org/2000/svg" xmlns:xlink="http://www.w3.org/1999/xlink">
<g id="graph0" class="graph" transform="scale(1 1) rotate(0) translate(4 609)">
<title>grammer</title>
<polygon fill="white" stroke="none" points="-4,4 -4,-609 506,-609 506,4 -4,4"/>
<!-- grammer -->
<g id="node1" class="node"><title>grammer</title>
<polygon fill="none" stroke="black" points="62.5,-148 62.5,-263 121.5,-263 121.5,-148 62.5,-148"/>
<text text-anchor="middle" x="92" y="-247.8" font-family="Times,serif" font-size="14.00">g_ndfas</text>
<polyline fill="none" stroke="black" points="62.5,-240 121.5,-240 "/>
<text text-anchor="middle" x="92" y="-224.8" font-family="Times,serif" font-size="14.00">*g_dfa</text>
<polyline fill="none" stroke="black" points="62.5,-217 121.5,-217 "/>
<text text-anchor="middle" x="92" y="-201.8" font-family="Times,serif" font-size="14.00">g_ll</text>
<polyline fill="none" stroke="black" points="62.5,-194 121.5,-194 "/>
<text text-anchor="middle" x="92" y="-178.8" font-family="Times,serif" font-size="14.00">g_start</text>
<polyline fill="none" stroke="black" points="62.5,-171 121.5,-171 "/>
<text text-anchor="middle" x="92" y="-155.8" font-family="Times,serif" font-size="14.00">g_accel</text>
<text text-anchor="middle" x="37" y="-136.3" font-family="Times,serif" font-size="14.00">grammer</text>
</g>
<!-- dfa -->
<g id="node2" class="node"><title>dfa</title>
<polygon fill="none" stroke="black" points="194,-166.5 194,-304.5 261,-304.5 261,-166.5 194,-166.5"/>
<text text-anchor="middle" x="227.5" y="-289.3" font-family="Times,serif" font-size="14.00">d_type</text>
<polyline fill="none" stroke="black" points="194,-281.5 261,-281.5 "/>
<text text-anchor="middle" x="227.5" y="-266.3" font-family="Times,serif" font-size="14.00">*d_name</text>
<polyline fill="none" stroke="black" points="194,-258.5 261,-258.5 "/>
<text text-anchor="middle" x="227.5" y="-243.3" font-family="Times,serif" font-size="14.00">d_initial</text>
<polyline fill="none" stroke="black" points="194,-235.5 261,-235.5 "/>
<text text-anchor="middle" x="227.5" y="-220.3" font-family="Times,serif" font-size="14.00">d_nstates</text>
<polyline fill="none" stroke="black" points="194,-212.5 261,-212.5 "/>
<text text-anchor="middle" x="227.5" y="-197.3" font-family="Times,serif" font-size="14.00">*d_state</text>
<polyline fill="none" stroke="black" points="194,-189.5 261,-189.5 "/>
<text text-anchor="middle" x="227.5" y="-174.3" font-family="Times,serif" font-size="14.00">d_first</text>
<text text-anchor="middle" x="185" y="-154.8" font-family="Times,serif" font-size="14.00">dfa</text>
</g>
<!-- grammer&#45;&gt;dfa -->
<g id="edge1" class="edge"><title>grammer:g_dfa&#45;&gt;dfa:n</title>
<path fill="none" stroke="black" d="M123,-228.5C169.224,-228.5 151.881,-285.457 194,-304.5 202.695,-308.431 213.998,-313.849 220.999,-313.319"/>
<polygon fill="black" stroke="black" points="223.798,-315.427 227.5,-305.5 218.416,-310.952 223.798,-315.427"/>
</g>
<!-- labellist -->
<g id="node5" class="node"><title>labellist</title>
<polygon fill="none" stroke="black" points="193,-84.5 193,-130.5 262,-130.5 262,-84.5 193,-84.5"/>
<text text-anchor="middle" x="227.5" y="-115.3" font-family="Times,serif" font-size="14.00">ll_nlabels</text>
<polyline fill="none" stroke="black" points="193,-107.5 262,-107.5 "/>
<text text-anchor="middle" x="227.5" y="-92.3" font-family="Times,serif" font-size="14.00">*ll_label</text>
<text text-anchor="middle" x="171.5" y="-72.8" font-family="Times,serif" font-size="14.00">labellist</text>
</g>
<!-- grammer&#45;&gt;labellist -->
<g id="edge2" class="edge"><title>grammer:g_ll&#45;&gt;labellist:n</title>
<path fill="none" stroke="black" d="M123,-205.5C124.473,-205.5 195.171,-155.971 219.431,-137.936"/>
<polygon fill="black" stroke="black" points="221.864,-140.472 227.5,-131.5 217.5,-134.999 221.864,-140.472"/>
</g>
<!-- state -->
<g id="node3" class="node"><title>state</title>
<polygon fill="none" stroke="black" points="320,-80.5 320,-218.5 383,-218.5 383,-80.5 320,-80.5"/>
<text text-anchor="middle" x="351.5" y="-203.3" font-family="Times,serif" font-size="14.00">s_narcs</text>
<polyline fill="none" stroke="black" points="320,-195.5 383,-195.5 "/>
<text text-anchor="middle" x="351.5" y="-180.3" font-family="Times,serif" font-size="14.00">*s_arc</text>
<polyline fill="none" stroke="black" points="320,-172.5 383,-172.5 "/>
<text text-anchor="middle" x="351.5" y="-157.3" font-family="Times,serif" font-size="14.00">s_lower</text>
<polyline fill="none" stroke="black" points="320,-149.5 383,-149.5 "/>
<text text-anchor="middle" x="351.5" y="-134.3" font-family="Times,serif" font-size="14.00">s_upper</text>
<polyline fill="none" stroke="black" points="320,-126.5 383,-126.5 "/>
<text text-anchor="middle" x="351.5" y="-111.3" font-family="Times,serif" font-size="14.00">*s_accel</text>
<polyline fill="none" stroke="black" points="320,-103.5 383,-103.5 "/>
<text text-anchor="middle" x="351.5" y="-88.3" font-family="Times,serif" font-size="14.00">s_accept</text>
<text text-anchor="middle" x="307.5" y="-68.8" font-family="Times,serif" font-size="14.00">state</text>
</g>
<!-- dfa&#45;&gt;state -->
<g id="edge3" class="edge"><title>dfa:d_state&#45;&gt;state:n</title>
<path fill="none" stroke="black" d="M262,-200.5C298.217,-200.5 340.915,-247.826 349.822,-229.452"/>
<polygon fill="black" stroke="black" points="353.288,-229.943 351.5,-219.5 346.386,-228.779 353.288,-229.943"/>
</g>
<!-- arc -->
<g id="node4" class="node"><title>arc</title>
<polygon fill="none" stroke="black" points="441,-138.5 441,-184.5 502,-184.5 502,-138.5 441,-138.5"/>
<text text-anchor="middle" x="471.5" y="-169.3" font-family="Times,serif" font-size="14.00">a_lbl</text>
<polyline fill="none" stroke="black" points="441,-161.5 502,-161.5 "/>
<text text-anchor="middle" x="471.5" y="-146.3" font-family="Times,serif" font-size="14.00">a_arrow</text>
<text text-anchor="middle" x="432.5" y="-126.8" font-family="Times,serif" font-size="14.00">arc</text>
</g>
<!-- state&#45;&gt;arc -->
<g id="edge4" class="edge"><title>state:s_arc&#45;&gt;arc:n</title>
<path fill="none" stroke="black" d="M383,-184.5C418.187,-184.5 461.239,-216.776 469.929,-195.428"/>
<polygon fill="black" stroke="black" points="473.394,-195.924 471.5,-185.5 466.48,-194.83 473.394,-195.924"/>
</g>
<!-- label -->
<g id="node6" class="node"><title>label</title>
<polygon fill="none" stroke="black" points="323,-15.5 323,-61.5 380,-61.5 380,-15.5 323,-15.5"/>
<text text-anchor="middle" x="351.5" y="-46.3" font-family="Times,serif" font-size="14.00">lb_type</text>
<polyline fill="none" stroke="black" points="323,-38.5 380,-38.5 "/>
<text text-anchor="middle" x="351.5" y="-23.3" font-family="Times,serif" font-size="14.00">*lb_str</text>
<text text-anchor="middle" x="309.5" y="-3.8" font-family="Times,serif" font-size="14.00">label</text>
</g>
<!-- labellist&#45;&gt;label -->
<g id="edge5" class="edge"><title>labellist:ll_label&#45;&gt;label:n</title>
<path fill="none" stroke="black" d="M262,-95.5C290.07,-95.5 293.425,-79.5387 320,-70.5 328.44,-67.6294 338.461,-70.757 344.896,-70.1764"/>
<polygon fill="black" stroke="black" points="347.632,-72.3634 351.5,-62.5 342.325,-67.7984 347.632,-72.3634"/>
</g>
<!-- tok_state -->
<g id="node7" class="node"><title>tok_state</title>
<polygon fill="none" stroke="black" points="49,-282.5 49,-604.5 135,-604.5 135,-282.5 49,-282.5"/>
<text text-anchor="middle" x="92" y="-589.3" font-family="Times,serif" font-size="14.00">*buf</text>
<polyline fill="none" stroke="black" points="49,-581.5 135,-581.5 "/>
<text text-anchor="middle" x="92" y="-566.3" font-family="Times,serif" font-size="14.00">*cur</text>
<polyline fill="none" stroke="black" points="49,-558.5 135,-558.5 "/>
<text text-anchor="middle" x="92" y="-543.3" font-family="Times,serif" font-size="14.00">*inp</text>
<polyline fill="none" stroke="black" points="49,-535.5 135,-535.5 "/>
<text text-anchor="middle" x="92" y="-520.3" font-family="Times,serif" font-size="14.00">*end</text>
<polyline fill="none" stroke="black" points="49,-512.5 135,-512.5 "/>
<text text-anchor="middle" x="92" y="-497.3" font-family="Times,serif" font-size="14.00">done</text>
<polyline fill="none" stroke="black" points="49,-489.5 135,-489.5 "/>
<text text-anchor="middle" x="92" y="-474.3" font-family="Times,serif" font-size="14.00">*fp</text>
<polyline fill="none" stroke="black" points="49,-466.5 135,-466.5 "/>
<text text-anchor="middle" x="92" y="-451.3" font-family="Times,serif" font-size="14.00">tabsize</text>
<polyline fill="none" stroke="black" points="49,-443.5 135,-443.5 "/>
<text text-anchor="middle" x="92" y="-428.3" font-family="Times,serif" font-size="14.00">indent</text>
<polyline fill="none" stroke="black" points="49,-420.5 135,-420.5 "/>
<text text-anchor="middle" x="92" y="-405.3" font-family="Times,serif" font-size="14.00">*indstack</text>
<polyline fill="none" stroke="black" points="49,-397.5 135,-397.5 "/>
<text text-anchor="middle" x="92" y="-382.3" font-family="Times,serif" font-size="14.00">atbol</text>
<polyline fill="none" stroke="black" points="49,-374.5 135,-374.5 "/>
<text text-anchor="middle" x="92" y="-359.3" font-family="Times,serif" font-size="14.00">pendin</text>
<polyline fill="none" stroke="black" points="49,-351.5 135,-351.5 "/>
<text text-anchor="middle" x="92" y="-336.3" font-family="Times,serif" font-size="14.00">*prompt</text>
<polyline fill="none" stroke="black" points="49,-328.5 135,-328.5 "/>
<text text-anchor="middle" x="92" y="-313.3" font-family="Times,serif" font-size="14.00">*nextprompt</text>
<polyline fill="none" stroke="black" points="49,-305.5 135,-305.5 "/>
<text text-anchor="middle" x="92" y="-290.3" font-family="Times,serif" font-size="14.00">lineno</text>
<text text-anchor="middle" x="24.5" y="-270.8" font-family="Times,serif" font-size="14.00">tok_state</text>
</g>
</g>
</svg>
